<svg width="75.000000" height="75.000000" viewBox="0 0 75 75" fill="none" xmlns="http://www.w3.org/2000/svg" xmlns:xlink="http://www.w3.org/1999/xlink">
	<desc>
			Created with Pixso.
	</desc>
	<defs>
		<clipPath id="clip2_9">
			<rect id="account-circle-svgrepo-com" width="75.000000" height="75.000000" fill="white" fill-opacity="0"/>
		</clipPath>
		<clipPath id="clip2_7">
			<rect id="фрейм 1" width="75.000000" height="75.000000" fill="white" fill-opacity="0"/>
		</clipPath>
	</defs>
	<rect id="фрейм 1" width="75.000000" height="75.000000" fill="#758897" fill-opacity="1.000000"/>
	<g clip-path="url(#clip2_7)">
		<g clip-path="url(#clip2_9)">
			<path id="path" d="M0 0L75 0L75 75L0 75L0 0Z" fill="#000000" fill-opacity="0" fill-rule="nonzero"/>
			<path id="path" d="M37.5 68.75C20.2406 68.75 6.25 54.7594 6.25 37.5C6.25 20.2406 20.2406 6.25 37.5 6.25C54.7593 6.25 68.75 20.2406 68.75 37.5C68.75 54.7594 54.7593 68.75 37.5 68.75ZM21.9156 57.05C26.4719 60.6926 31.6667 62.5093 37.5 62.5C43.6562 62.5 49.2906 60.275 53.6469 56.5875C49.3591 52.1879 44.1434 49.9921 38 50C31.6053 49.9926 26.2438 52.3426 21.9156 57.05ZM17.55 52.5625C23.0961 46.6767 29.9128 43.7392 38 43.75C45.7672 43.7399 52.3943 46.4836 57.8812 51.9813C59.6736 49.4586 60.9535 46.6982 61.7208 43.7003C62.4882 40.7023 62.6918 37.6665 62.3318 34.5929C61.9718 31.5193 61.0721 28.6128 59.6328 25.8733C58.1934 23.1338 56.3103 20.744 53.9835 18.7038C51.6566 16.6635 49.0411 15.109 46.137 14.0401C43.2328 12.9711 40.2336 12.4591 37.1394 12.5039C34.0451 12.5487 31.062 13.1475 28.1901 14.3001C25.3181 15.4527 22.7488 17.0824 20.482 19.1892C18.2153 21.2959 16.4022 23.7393 15.0428 26.5194C13.6834 29.2994 12.8683 32.2308 12.5975 35.3136C12.3267 38.3963 12.6182 41.4249 13.4721 44.3994C14.326 47.3738 15.6852 50.0928 17.55 52.5625ZM37.5 40.625C34.0482 40.625 31.1019 39.4046 28.6611 36.9638C26.2204 34.5231 25 31.5768 25 28.125C25 24.6732 26.2204 21.7269 28.6611 19.2862C31.1019 16.8454 34.0482 15.625 37.5 15.625C40.9518 15.625 43.8981 16.8454 46.3388 19.2862C48.7796 21.7269 50 24.6732 50 28.125C50 31.5768 48.7796 34.5231 46.3388 36.9638C43.8981 39.4046 40.9518 40.625 37.5 40.625ZM37.5 34.375C39.2259 34.375 40.699 33.7648 41.9194 32.5444C43.1398 31.324 43.75 29.8509 43.75 28.125C43.75 26.3991 43.1398 24.926 41.9194 23.7056C40.699 22.4852 39.2259 21.875 37.5 21.875C35.7741 21.875 34.301 22.4852 33.0806 23.7056C31.8602 24.926 31.25 26.3991 31.25 28.125C31.25 29.8509 31.8602 31.324 33.0806 32.5444C34.301 33.7648 35.7741 34.375 37.5 34.375Z" fill="#EDEDF0" fill-opacity="1.000000" fill-rule="nonzero"/>
		</g>
	</g>
</svg>
